<?xml version="1.0" encoding="utf-8"?>
<!-- Generator: Adobe Illustrator 27.0.1, SVG Export Plug-In . SVG Version: 6.00 Build 0)  -->
<svg version="1.1" id="Layer_1" xmlns="http://www.w3.org/2000/svg" xmlns:xlink="http://www.w3.org/1999/xlink" x="0px" y="0px"
	 viewBox="0 0 300.7 100" style="enable-background:new 0 0 300.7 100;" xml:space="preserve">
<style type="text/css">
	.st0{fill:#827E7D;}
	.st1{fill:#134E7E;}
</style>
<g>
	<rect x="23.5" y="64.9" class="st0" width="4.5" height="11.9"/>
	<rect x="48.1" y="64.9" class="st0" width="4.5" height="11.9"/>
	<rect x="72.6" y="64.9" class="st0" width="4.5" height="11.9"/>
	<rect x="97.7" y="64.9" class="st0" width="4.5" height="11.9"/>
	<rect x="122.3" y="64.9" class="st0" width="4.5" height="11.9"/>
	<path class="st1" d="M153.1,70.9c0,3-2.4,5.4-5.4,5.4c-3,0-5.4-2.4-5.4-5.4c0-3,2.4-5.4,5.4-5.4C150.7,65.4,153.1,67.9,153.1,70.9z
		"/>
	<path class="st1" d="M177.8,70.9c0,3-2.4,5.4-5.4,5.4c-3,0-5.4-2.4-5.4-5.4c0-3,2.4-5.4,5.4-5.4C175.3,65.4,177.8,67.9,177.8,70.9z
		"/>
	<path class="st1" d="M202.7,70.9c0,3-2.4,5.4-5.4,5.4c-3,0-5.4-2.4-5.4-5.4c0-3,2.4-5.4,5.4-5.4C200.2,65.4,202.7,67.9,202.7,70.9z
		"/>
	<path class="st1" d="M227.9,70.9c0,3-2.4,5.4-5.4,5.4c-3,0-5.4-2.4-5.4-5.4c0-3,2.4-5.4,5.4-5.4C225.5,65.4,227.9,67.9,227.9,70.9z
		"/>
	<rect x="244.4" y="64.9" class="st0" width="4.5" height="11.9"/>
	<path class="st1" d="M265.4,70.9c0,3,2.4,5.4,5.4,5.4c3,0,5.4-2.4,5.4-5.4c0-3-2.4-5.4-5.4-5.4C267.9,65.4,265.4,67.9,265.4,70.9z"
		/>
	<g>
		<path class="st0" d="M48.7,53.1c0,0.2-0.4,0.6-1,1.3c-0.4,0.5-1,1-1.7,1.4c-0.7,0.4-1.7,0.7-2.9,0.9c-1.2,0.2-2.8,0.3-4.8,0.3
			c-2.6,0-4.9-0.1-6.7-0.4c-1.9-0.3-3.4-0.7-4.5-1.2c-1.2-0.6-2-1.3-2.6-2.1c-0.5-0.9-0.8-1.9-0.8-3.1c0-1.3,0.1-2.3,0.4-3.2
			c0.3-0.9,0.7-1.6,1.3-2.2c0.6-0.6,1.3-1.1,2.1-1.4c0.8-0.3,1.7-0.6,2.8-0.8c1-0.2,2.2-0.3,3.4-0.3c1.2,0,2.5-0.1,3.9-0.1
			c2,0,3.6,0.1,5,0.2c1.3,0.2,2.4,0.4,3.3,0.6c0.8,0.3,1.5,0.5,1.9,0.8c0.4,0.3,0.7,0.6,0.9,0.8c0-1.6-0.1-3-0.2-4.2
			c-0.1-1.1-0.4-2.1-0.7-2.9c-0.3-0.8-0.7-1.4-1.2-1.8c-0.5-0.5-1.1-0.8-1.8-1c-0.7-0.2-1.6-0.4-2.5-0.4c-1-0.1-2.1-0.1-3.3-0.1
			c-1.9,0-3.5,0-4.8,0.1c-1.3,0.1-2.3,0.3-3,0.6c-0.7,0.3-1.3,0.7-1.6,1.1c-0.3,0.5-0.5,1.1-0.5,1.9h-4.2c0-1.3,0.2-2.4,0.7-3.3
			c0.5-0.9,1.3-1.7,2.3-2.2c1.1-0.6,2.5-1,4.3-1.2c1.8-0.3,4-0.4,6.6-0.4c2.5,0,4.7,0.2,6.5,0.6c1.8,0.4,3.2,1.2,4.3,2.2
			c1.1,1.1,1.9,2.5,2.4,4.3c0.5,1.8,0.7,4.1,0.7,6.8v11.8h-4.2V53.1z M39,53.6c1.8,0,3.4-0.1,4.6-0.3c1.2-0.2,2.2-0.4,3-0.8
			c0.8-0.3,1.3-0.8,1.6-1.3c0.3-0.5,0.5-1.1,0.5-1.8c0-0.7-0.2-1.3-0.6-1.7c-0.4-0.5-1-0.9-1.8-1.2c-0.9-0.3-2-0.5-3.4-0.7
			c-1.4-0.1-3.2-0.2-5.3-0.2c-2.1,0-3.8,0-5.1,0.1c-1.3,0.1-2.3,0.2-3,0.5c-0.7,0.3-1.2,0.6-1.4,1.1c-0.2,0.5-0.4,1.2-0.4,2
			c0,0.9,0.1,1.6,0.4,2.1c0.3,0.5,0.8,1,1.6,1.3c0.8,0.3,1.9,0.5,3.4,0.6C34.6,53.5,36.6,53.6,39,53.6z"/>
		<path class="st0" d="M61.5,31.5v13.8c0,1.5,0.1,2.8,0.3,3.9c0.2,1.1,0.7,1.9,1.4,2.5c0.7,0.6,1.7,1.1,3,1.4c1.3,0.3,3,0.4,5,0.4
			c2.3,0,4.1-0.2,5.6-0.5c1.4-0.3,2.6-0.8,3.4-1.4c0.8-0.6,1.4-1.3,1.7-2.2c0.3-0.8,0.5-1.8,0.5-2.8V31.5h4.2v25h-4.2v-4.4
			c-0.2,0.5-0.5,1-1,1.6c-0.5,0.6-1.2,1.1-2.2,1.6c-1,0.5-2.2,0.9-3.7,1.2C74,56.9,72.1,57,69.9,57c-1.9,0-3.5-0.1-4.8-0.3
			c-1.3-0.2-2.5-0.6-3.4-1c-0.9-0.4-1.7-1-2.2-1.6c-0.6-0.7-1-1.4-1.3-2.3c-0.3-0.9-0.5-1.8-0.6-2.9c-0.1-1.1-0.2-2.2-0.2-3.5
			l0-13.9H61.5z"/>
		<path class="st0" d="M115.4,45.4c0,2.1-0.2,3.9-0.5,5.3c-0.3,1.4-0.9,2.6-1.7,3.4c-0.8,0.9-1.9,1.5-3.2,1.8
			c-1.3,0.4-3,0.5-4.9,0.5c-1.9,0-3.5-0.1-4.8-0.4c-1.3-0.3-2.3-0.8-3.1-1.5c-0.8-0.7-1.4-1.6-1.7-2.8c-0.3-1.2-0.5-2.6-0.5-4.3V35
			h-5.2v-3.5h5.2v-6.8H99v6.8h15.7V35H99v12.5c0,1.4,0.1,2.5,0.3,3.2c0.2,0.8,0.5,1.3,1,1.6c0.5,0.3,1.1,0.5,1.8,0.6
			c0.8,0.1,1.7,0.1,2.8,0.1c0.9,0,1.6,0,2.3,0c0.7,0,1.3-0.1,1.8-0.3c0.5-0.2,1-0.4,1.3-0.7c0.4-0.3,0.7-0.7,0.9-1.3
			c0.2-0.6,0.4-1.3,0.5-2.1c0.1-0.9,0.2-1.9,0.2-3.2H115.4z"/>
		<path class="st0" d="M117.7,43.8c0-2.5,0.3-4.6,0.8-6.3c0.6-1.7,1.4-3,2.7-4c1.2-1,2.8-1.7,4.7-2.1c1.9-0.4,4.3-0.6,7.1-0.6
			c2.8,0,5.1,0.2,7.1,0.6c1.9,0.4,3.5,1.1,4.7,2.1c1.2,1,2.1,2.3,2.7,4c0.6,1.7,0.8,3.8,0.8,6.3c0,2.6-0.3,4.7-0.8,6.4
			c-0.6,1.7-1.4,3.1-2.7,4.1c-1.2,1-2.8,1.7-4.7,2.1c-1.9,0.4-4.3,0.6-7.1,0.6c-2.8,0-5.1-0.2-7.1-0.6c-1.9-0.4-3.5-1.1-4.7-2.1
			c-1.2-1-2.1-2.4-2.7-4.1C118,48.5,117.7,46.3,117.7,43.8z M121.9,43.8c0,1.4,0.1,2.6,0.2,3.6c0.1,1,0.3,1.9,0.6,2.6
			c0.3,0.7,0.7,1.3,1.2,1.8c0.5,0.5,1.2,0.8,2,1.1c0.8,0.3,1.8,0.5,3,0.6c1.2,0.1,2.6,0.2,4.2,0.2c1.4,0,2.6,0,3.7-0.1
			c1.1-0.1,2-0.2,2.9-0.4c0.8-0.2,1.5-0.6,2.1-1c0.6-0.4,1-1,1.4-1.7c0.4-0.7,0.6-1.6,0.8-2.7c0.2-1.1,0.2-2.4,0.2-3.9
			c0-1.5-0.1-2.7-0.2-3.8c-0.2-1-0.4-1.9-0.8-2.6c-0.4-0.7-0.8-1.3-1.4-1.7c-0.6-0.4-1.3-0.7-2.1-0.9c-0.8-0.2-1.8-0.3-2.9-0.4
			c-1.1-0.1-2.3-0.1-3.7-0.1c-1.4,0-2.6,0-3.7,0.1c-1.1,0.1-2.1,0.2-2.9,0.4c-0.8,0.2-1.5,0.5-2.1,0.9c-0.6,0.4-1,1-1.4,1.7
			c-0.4,0.7-0.6,1.6-0.8,2.6C122,41,121.9,42.3,121.9,43.8z"/>
		<path class="st1" d="M166.7,57c-2.8,0-5.1-0.2-7.1-0.6c-1.9-0.4-3.5-1.1-4.7-2.1c-1.2-1-2.1-2.3-2.7-4c-0.6-1.7-0.8-3.8-0.8-6.3
			c0-2.6,0.3-4.7,0.8-6.4c0.6-1.7,1.4-3,2.7-4c1.2-1,2.8-1.7,4.7-2.1c1.9-0.4,4.3-0.6,7.1-0.6c2,0,3.6,0.1,5,0.3
			c1.3,0.2,2.4,0.5,3.3,0.8c0.8,0.3,1.5,0.6,1.9,1c0.4,0.4,0.8,0.7,1,1V23.2h4.2v33.4h-4.2v-3.9l-1,1.3c-0.6,0.6-1.3,1.1-2,1.5
			c-0.7,0.4-1.8,0.7-3.1,1.1C170.3,56.9,168.7,57,166.7,57z M166.7,53.5c1.4,0,2.6,0,3.7-0.1c1.1-0.1,2-0.2,2.9-0.4
			c0.8-0.2,1.5-0.5,2.1-1c0.6-0.4,1-1,1.4-1.7c0.4-0.7,0.6-1.6,0.8-2.6c0.2-1,0.2-2.3,0.2-3.7c0-1.5-0.1-2.8-0.2-3.9
			c-0.2-1.1-0.4-2-0.8-2.7c-0.4-0.7-0.8-1.3-1.4-1.7c-0.6-0.4-1.3-0.7-2.1-1c-0.8-0.2-1.8-0.4-2.9-0.4c-1.1-0.1-2.3-0.1-3.7-0.1
			c-1.6,0-3,0.1-4.2,0.2c-1.2,0.1-2.2,0.3-3,0.5c-0.8,0.3-1.5,0.6-2,1.1c-0.5,0.5-0.9,1-1.2,1.8c-0.3,0.7-0.5,1.6-0.6,2.6
			c-0.1,1-0.1,2.2-0.1,3.6c0,1.3,0,2.5,0.1,3.5c0.1,1,0.3,1.8,0.6,2.6c0.3,0.7,0.7,1.3,1.2,1.8c0.5,0.5,1.2,0.8,2,1.1
			c0.8,0.3,1.8,0.4,3,0.5C163.7,53.5,165.1,53.5,166.7,53.5z"/>
		<path class="st1" d="M211.4,53.1c0,0.2-0.4,0.6-1,1.3c-0.4,0.5-1,1-1.7,1.4c-0.7,0.4-1.7,0.7-2.9,0.9c-1.2,0.2-2.8,0.3-4.8,0.3
			c-2.6,0-4.9-0.1-6.7-0.4c-1.9-0.3-3.4-0.7-4.5-1.2c-1.2-0.6-2-1.3-2.6-2.1c-0.5-0.9-0.8-1.9-0.8-3.1c0-1.3,0.1-2.3,0.4-3.2
			c0.3-0.9,0.7-1.6,1.3-2.2c0.6-0.6,1.3-1.1,2.1-1.4c0.8-0.3,1.7-0.6,2.8-0.8c1-0.2,2.2-0.3,3.4-0.3c1.2,0,2.5-0.1,3.9-0.1
			c2,0,3.6,0.1,5,0.2c1.3,0.2,2.4,0.4,3.3,0.6c0.8,0.3,1.5,0.5,1.9,0.8c0.4,0.3,0.7,0.6,0.9,0.8c0-1.6-0.1-3-0.2-4.2
			c-0.1-1.1-0.4-2.1-0.7-2.9c-0.3-0.8-0.7-1.4-1.2-1.8c-0.5-0.5-1.1-0.8-1.8-1c-0.7-0.2-1.6-0.4-2.5-0.4c-1-0.1-2.1-0.1-3.3-0.1
			c-1.9,0-3.5,0-4.8,0.1c-1.3,0.1-2.3,0.3-3,0.6c-0.7,0.3-1.3,0.7-1.6,1.1c-0.3,0.5-0.5,1.1-0.5,1.9h-4.2c0-1.3,0.2-2.4,0.7-3.3
			c0.5-0.9,1.3-1.7,2.3-2.2c1.1-0.6,2.5-1,4.3-1.2c1.8-0.3,4-0.4,6.6-0.4c2.6,0,4.7,0.2,6.5,0.6c1.8,0.4,3.2,1.2,4.3,2.2
			c1.1,1.1,1.9,2.5,2.4,4.3c0.5,1.8,0.7,4.1,0.7,6.8v11.8h-4.2V53.1z M201.7,53.6c1.8,0,3.4-0.1,4.6-0.3c1.2-0.2,2.2-0.4,3-0.8
			c0.8-0.3,1.3-0.8,1.6-1.3c0.3-0.5,0.5-1.1,0.5-1.8c0-0.7-0.2-1.3-0.6-1.7c-0.4-0.5-1-0.9-1.8-1.2c-0.9-0.3-2-0.5-3.4-0.7
			c-1.4-0.1-3.2-0.2-5.3-0.2c-2.1,0-3.8,0-5.1,0.1c-1.3,0.1-2.3,0.2-3,0.5c-0.7,0.3-1.2,0.6-1.4,1.1c-0.2,0.5-0.4,1.2-0.4,2
			c0,0.9,0.1,1.6,0.4,2.1c0.3,0.5,0.8,1,1.6,1.3c0.8,0.3,1.9,0.5,3.4,0.6C197.3,53.5,199.2,53.6,201.7,53.6z"/>
		<path class="st1" d="M244.3,45.4c0,2.1-0.2,3.9-0.5,5.3c-0.3,1.4-0.9,2.6-1.7,3.4c-0.8,0.9-1.9,1.5-3.2,1.8
			c-1.3,0.4-3,0.5-4.9,0.5c-1.9,0-3.5-0.1-4.8-0.4c-1.3-0.3-2.3-0.8-3.1-1.5c-0.8-0.7-1.4-1.6-1.7-2.8c-0.3-1.2-0.5-2.6-0.5-4.3V35
			h-5.2v-3.5h5.2v-6.8h4.2v6.8h15.7V35h-15.7v12.5c0,1.4,0.1,2.5,0.3,3.2c0.2,0.8,0.5,1.3,1,1.6c0.5,0.3,1.1,0.5,1.8,0.6
			c0.8,0.1,1.7,0.1,2.8,0.1c0.9,0,1.6,0,2.3,0c0.7,0,1.3-0.1,1.8-0.3c0.5-0.2,1-0.4,1.3-0.7c0.4-0.3,0.7-0.7,0.9-1.3
			c0.2-0.6,0.4-1.3,0.5-2.1c0.1-0.9,0.2-1.9,0.2-3.2H244.3z"/>
		<path class="st1" d="M272.3,53.1c0,0.2-0.4,0.6-1,1.3c-0.4,0.5-1,1-1.7,1.4c-0.7,0.4-1.7,0.7-2.9,0.9c-1.2,0.2-2.8,0.3-4.8,0.3
			c-2.6,0-4.9-0.1-6.7-0.4c-1.9-0.3-3.4-0.7-4.5-1.2c-1.2-0.6-2-1.3-2.6-2.1c-0.5-0.9-0.8-1.9-0.8-3.1c0-1.3,0.1-2.3,0.4-3.2
			c0.3-0.9,0.7-1.6,1.3-2.2c0.6-0.6,1.3-1.1,2.1-1.4c0.8-0.3,1.7-0.6,2.8-0.8c1-0.2,2.2-0.3,3.4-0.3c1.2,0,2.5-0.1,3.9-0.1
			c2,0,3.6,0.1,5,0.2c1.3,0.2,2.4,0.4,3.3,0.6c0.8,0.3,1.5,0.5,1.9,0.8c0.4,0.3,0.7,0.6,0.9,0.8c0-1.6-0.1-3-0.2-4.2
			c-0.1-1.1-0.4-2.1-0.7-2.9c-0.3-0.8-0.7-1.4-1.2-1.8c-0.5-0.5-1.1-0.8-1.8-1c-0.7-0.2-1.6-0.4-2.5-0.4c-1-0.1-2.1-0.1-3.3-0.1
			c-1.9,0-3.5,0-4.8,0.1c-1.3,0.1-2.3,0.3-3,0.6c-0.7,0.3-1.3,0.7-1.6,1.1c-0.3,0.5-0.5,1.1-0.5,1.9h-4.2c0-1.3,0.2-2.4,0.7-3.3
			c0.5-0.9,1.3-1.7,2.3-2.2c1.1-0.6,2.5-1,4.3-1.2c1.8-0.3,4-0.4,6.6-0.4c2.6,0,4.7,0.2,6.5,0.6c1.8,0.4,3.2,1.2,4.3,2.2
			c1.1,1.1,1.9,2.5,2.4,4.3c0.5,1.8,0.7,4.1,0.7,6.8v11.8h-4.2V53.1z M262.6,53.6c1.8,0,3.4-0.1,4.6-0.3c1.2-0.2,2.2-0.4,3-0.8
			c0.8-0.3,1.3-0.8,1.6-1.3c0.3-0.5,0.5-1.1,0.5-1.8c0-0.7-0.2-1.3-0.6-1.7c-0.4-0.5-1-0.9-1.8-1.2c-0.9-0.3-2-0.5-3.4-0.7
			c-1.4-0.1-3.2-0.2-5.3-0.2c-2.1,0-3.8,0-5.1,0.1c-1.3,0.1-2.3,0.2-3,0.5c-0.7,0.3-1.2,0.6-1.4,1.1c-0.2,0.5-0.4,1.2-0.4,2
			c0,0.9,0.1,1.6,0.4,2.1c0.3,0.5,0.8,1,1.6,1.3c0.8,0.3,1.9,0.5,3.4,0.6C258.2,53.5,260.2,53.6,262.6,53.6z"/>
	</g>
</g>
</svg>
