<?xml version="1.0" encoding="UTF-8"?>
<svg id="Layer_1" data-name="Layer 1" xmlns="http://www.w3.org/2000/svg" version="1.1" viewBox="0 0 1920 1080">
  <defs>
    <style>
      .cls-1 {
        fill: #827e7d;
      }

      .cls-1, .cls-2, .cls-3 {
        stroke-width: 0px;
      }

      .cls-2, .cls-4 {
        fill: #134e7e;
      }

      .cls-3 {
        fill: #7e7d7d;
      }

      .cls-4 {
        font-family: Michroma-Regular, Michroma;
        font-size: 130px;
      }
    </style>
  </defs>
  <g>
    <rect class="cls-1" x="355.7" y="358.3" width="21.8" height="57.7"/>
    <rect class="cls-1" x="475" y="358.3" width="21.8" height="57.7"/>
    <rect class="cls-1" x="593.7" y="358.3" width="21.8" height="57.7"/>
    <rect class="cls-1" x="715.4" y="358.3" width="21.8" height="57.7"/>
    <rect class="cls-1" x="834.7" y="358.3" width="21.8" height="57.7"/>
    <path class="cls-2" d="M984,387.4c0,14.5-11.6,26.2-26.2,26.2s-26.2-11.6-26.2-26.2,11.6-26.2,26.2-26.2c14.5-.5,26.2,11.6,26.2,26.2Z"/>
    <path class="cls-2" d="M1103.7,387.4c0,14.5-11.6,26.2-26.2,26.2s-26.2-11.6-26.2-26.2,11.6-26.2,26.2-26.2c14.1-.5,26.2,11.6,26.2,26.2Z"/>
    <path class="cls-2" d="M1224.4,387.4c0,14.5-11.6,26.2-26.2,26.2s-26.2-11.6-26.2-26.2,11.6-26.2,26.2-26.2c14.1-.5,26.2,11.6,26.2,26.2Z"/>
    <path class="cls-2" d="M1346.6,387.4c0,14.5-11.6,26.2-26.2,26.2s-26.2-11.6-26.2-26.2,11.6-26.2,26.2-26.2c14.5-.5,26.2,11.6,26.2,26.2Z"/>
    <rect class="cls-1" x="1426.6" y="358.3" width="21.8" height="57.7"/>
    <path class="cls-2" d="M1528.4,387.4c0,14.5,11.6,26.2,26.2,26.2s26.2-11.6,26.2-26.2-11.6-26.2-26.2-26.2c-14.1-.5-26.2,11.6-26.2,26.2Z"/>
    <g>
      <path class="cls-1" d="M477.9,301.1c0,1-1.9,2.9-4.8,6.3-1.9,2.4-4.8,4.8-8.2,6.8s-8.2,3.4-14.1,4.4-13.6,1.5-23.3,1.5-23.8-.5-32.5-1.9c-9.2-1.5-16.5-3.4-21.8-5.8-5.8-2.9-9.7-6.3-12.6-10.2-2.4-4.4-3.9-9.2-3.9-15s.5-11.2,1.9-15.5,3.4-7.8,6.3-10.7c2.9-2.9,6.3-5.3,10.2-6.8,3.9-1.5,8.2-2.9,13.6-3.9,4.8-1,10.7-1.5,16.5-1.5s12.1-.5,18.9-.5c9.7,0,17.5.5,24.2,1,6.3,1,11.6,1.9,16,2.9,3.9,1.5,7.3,2.4,9.2,3.9s3.4,2.9,4.4,3.9c0-7.8-.5-14.5-1-20.4-.5-5.3-1.9-10.2-3.4-14.1-1.5-3.9-3.4-6.8-5.8-8.7-2.4-2.4-5.3-3.9-8.7-4.8-3.4-1-7.8-1.9-12.1-1.9-4.8-.5-10.2-.5-16-.5-9.2,0-17,0-23.3.5s-11.2,1.5-14.5,2.9-6.3,3.4-7.8,5.3c-1.5,2.4-2.4,5.3-2.4,9.2h-20.4c0-6.3,1-11.6,3.4-16,2.4-4.4,6.3-8.2,11.2-10.7,5.3-2.9,12.1-4.8,20.8-5.8,8.7-1.5,19.4-1.9,32-1.9s22.8,1,31.5,2.9c8.7,1.9,15.5,5.8,20.8,10.7,5.3,5.3,9.2,12.1,11.6,20.8s3.4,19.9,3.4,33v57.2h-20.4v-16.5h1ZM430.9,303.5c8.7,0,16.5-.5,22.3-1.5,5.8-1,10.7-1.9,14.5-3.9,3.9-1.5,6.3-3.9,7.8-6.3s2.4-5.3,2.4-8.7-1-6.3-2.9-8.2c-1.9-2.4-4.8-4.4-8.7-5.8-4.4-1.5-9.7-2.4-16.5-3.4-6.8-.5-15.5-1-25.7-1s-18.4,0-24.7.5-11.2,1-14.5,2.4-5.8,2.9-6.8,5.3c-1,2.4-1.9,5.8-1.9,9.7s.5,7.8,1.9,10.2,3.9,4.8,7.8,6.3c3.9,1.5,9.2,2.4,16.5,2.9,7.3,1,17,1.5,28.6,1.5Z"/>
      <path class="cls-1" d="M539.9,196.4v66.9c0,7.3.5,13.6,1.5,18.9,1,5.3,3.4,9.2,6.8,12.1s8.2,5.3,14.5,6.8c6.3,1.5,14.5,1.9,24.2,1.9s19.9-1,27.1-2.4c6.8-1.5,12.6-3.9,16.5-6.8,3.9-2.9,6.8-6.3,8.2-10.7,1.5-3.9,2.4-8.7,2.4-13.6v-73.2h20.4v121.2h-20.4v-21.3c-1,2.4-2.4,4.8-4.8,7.8s-5.8,5.3-10.7,7.8c-4.8,2.4-10.7,4.4-17.9,5.8-7.3,1.9-16.5,2.4-27.1,2.4s-17-.5-23.3-1.5c-6.3-1-12.1-2.9-16.5-4.8s-8.2-4.8-10.7-7.8c-2.9-3.4-4.8-6.8-6.3-11.2-1.5-4.4-2.4-8.7-2.9-14.1-.5-5.3-1-10.7-1-17v-67.4s19.9,0,19.9,0Z"/>
      <path class="cls-1" d="M801.2,263.8c0,10.2-1,18.9-2.4,25.7-1.5,6.8-4.4,12.6-8.2,16.5-3.9,4.4-9.2,7.3-15.5,8.7-6.3,1.9-14.5,2.4-23.8,2.4s-17-.5-23.3-1.9c-6.3-1.5-11.2-3.9-15-7.3-3.9-3.4-6.8-7.8-8.2-13.6-1.5-5.8-2.4-12.6-2.4-20.8v-60.1h-25.2v-17h25.2v-33h19.4v33h76.1v17h-76.1v60.6c0,6.8.5,12.1,1.5,15.5,1,3.9,2.4,6.3,4.8,7.8s5.3,2.4,8.7,2.9c3.9.5,8.2.5,13.6.5h11.2c3.4,0,6.3-.5,8.7-1.5s4.8-1.9,6.3-3.4c1.9-1.5,3.4-3.4,4.4-6.3,1-2.9,1.9-6.3,2.4-10.2.5-4.4,1-9.2,1-15.5,0,0,17,0,17,0Z"/>
      <path class="cls-1" d="M812.4,256c0-12.1,1.5-22.3,3.9-30.5,2.9-8.2,6.8-14.5,13.1-19.4,5.8-4.8,13.6-8.2,22.8-10.2,9.2-1.9,20.8-2.9,34.4-2.9s24.7,1,34.4,2.9c9.2,1.9,17,5.3,22.8,10.2s10.2,11.2,13.1,19.4c2.9,8.2,3.9,18.4,3.9,30.5s-1.5,22.8-3.9,31c-2.9,8.2-6.8,15-13.1,19.9-5.8,4.8-13.6,8.2-22.8,10.2-9.2,1.9-20.8,2.9-34.4,2.9s-24.7-1-34.4-2.9c-9.2-1.9-17-5.3-22.8-10.2s-10.2-11.6-13.1-19.9c-2.4-8.2-3.9-18.9-3.9-31ZM832.7,256c0,6.8.5,12.6,1,17.5.5,4.8,1.5,9.2,2.9,12.6,1.5,3.4,3.4,6.3,5.8,8.7s5.8,3.9,9.7,5.3,8.7,2.4,14.5,2.9,12.6,1,20.4,1,12.6,0,17.9-.5c5.3-.5,9.7-1,14.1-1.9,3.9-1,7.3-2.9,10.2-4.8,2.9-1.9,4.8-4.8,6.8-8.2s2.9-7.8,3.9-13.1c1-5.3,1-11.6,1-18.9s-.5-13.1-1-18.4c-1-4.8-1.9-9.2-3.9-12.6-1.9-3.4-3.9-6.3-6.8-8.2-2.9-1.9-6.3-3.4-10.2-4.4s-8.7-1.5-14.1-1.9c-5.3-.5-11.2-.5-17.9-.5s-12.6,0-17.9.5c-5.3.5-10.2,1-14.1,1.9s-7.3,2.4-10.2,4.4-4.8,4.8-6.8,8.2-2.9,7.8-3.9,12.6c-1,4.4-1.5,10.7-1.5,17.9Z"/>
      <path class="cls-2" d="M1049.9,320c-13.6,0-24.7-1-34.4-2.9-9.2-1.9-17-5.3-22.8-10.2-5.8-4.8-10.2-11.2-13.1-19.4-2.9-8.2-3.9-18.4-3.9-30.5s1.5-22.8,3.9-31c2.9-8.2,6.8-14.5,13.1-19.4,5.8-4.8,13.6-8.2,22.8-10.2s20.8-2.9,34.4-2.9,17.5.5,24.2,1.5c6.3,1,11.6,2.4,16,3.9,3.9,1.5,7.3,2.9,9.2,4.8s3.9,3.4,4.8,4.8v-52.4h20.4v161.9h-20.4v-18.9l-4.8,6.3c-2.9,2.9-6.3,5.3-9.7,7.3-3.4,1.9-8.7,3.4-15,5.3-7.3,1.5-15,1.9-24.7,1.9ZM1049.9,303c6.8,0,12.6,0,17.9-.5,5.3-.5,9.7-1,14.1-1.9,3.9-1,7.3-2.4,10.2-4.8,2.9-1.9,4.8-4.8,6.8-8.2,1.9-3.4,2.9-7.8,3.9-12.6s1-11.2,1-17.9-.5-13.6-1-18.9c-1-5.3-1.9-9.7-3.9-13.1-1.9-3.4-3.9-6.3-6.8-8.2-2.9-1.9-6.3-3.4-10.2-4.8-3.9-1-8.7-1.9-14.1-1.9-5.3-.5-11.2-.5-17.9-.5s-14.5.5-20.4,1c-5.8.5-10.7,1.5-14.5,2.4-3.9,1.5-7.3,2.9-9.7,5.3s-4.4,4.8-5.8,8.7c-1.5,3.4-2.4,7.8-2.9,12.6s-.5,10.7-.5,17.5,0,12.1.5,17,1.5,8.7,2.9,12.6c1.5,3.4,3.4,6.3,5.8,8.7s5.8,3.9,9.7,5.3,8.7,1.9,14.5,2.4c5.8,0,12.6,0,20.4,0Z"/>
      <path class="cls-2" d="M1266.6,301.1c0,1-1.9,2.9-4.8,6.3-1.9,2.4-4.8,4.8-8.2,6.8s-8.2,3.4-14.1,4.4-13.6,1.5-23.3,1.5-23.8-.5-32.5-1.9c-9.2-1.5-16.5-3.4-21.8-5.8-5.8-2.9-9.7-6.3-12.6-10.2-2.4-4.4-3.9-9.2-3.9-15s.5-11.2,1.9-15.5c1.5-4.4,3.4-7.8,6.3-10.7,2.9-2.9,6.3-5.3,10.2-6.8,3.9-1.5,8.2-2.9,13.6-3.9,4.8-1,10.7-1.5,16.5-1.5s12.1-.5,18.9-.5c9.7,0,17.5.5,24.2,1,6.3,1,11.6,1.9,16,2.9,3.9,1.5,7.3,2.4,9.2,3.9s3.4,2.9,4.4,3.9c0-7.8-.5-14.5-1-20.4-.5-5.3-1.9-10.2-3.4-14.1-1.5-3.9-3.4-6.8-5.8-8.7-2.4-2.4-5.3-3.9-8.7-4.8s-7.8-1.9-12.1-1.9c-4.8-.5-10.2-.5-16-.5-9.2,0-17,0-23.3.5s-11.2,1.5-14.5,2.9-6.3,3.4-7.8,5.3c-1.5,2.4-2.4,5.3-2.4,9.2h-20.4c0-6.3,1-11.6,3.4-16,2.4-4.4,6.3-8.2,11.2-10.7,5.3-2.9,12.1-4.8,20.8-5.8,8.7-1.5,19.4-1.9,32-1.9s22.8,1,31.5,2.9c8.7,1.9,15.5,5.8,20.8,10.7,5.3,5.3,9.2,12.1,11.6,20.8,2.4,8.7,3.4,19.9,3.4,33v57.2h-20.4v-16.5h1ZM1219.6,303.5c8.7,0,16.5-.5,22.3-1.5,5.8-1,10.7-1.9,14.5-3.9,3.9-1.5,6.3-3.9,7.8-6.3s2.4-5.3,2.4-8.7-1-6.3-2.9-8.2c-1.9-2.4-4.8-4.4-8.7-5.8-4.4-1.5-9.7-2.4-16.5-3.4-6.8-.5-15.5-1-25.7-1s-18.4,0-24.7.5-11.2,1-14.5,2.4c-3.4,1.5-5.8,2.9-6.8,5.3s-1.9,5.8-1.9,9.7.5,7.8,1.9,10.2c1.5,2.4,3.9,4.8,7.8,6.3,3.9,1.5,9.2,2.4,16.5,2.9,7.3,1,16.5,1.5,28.6,1.5Z"/>
      <path class="cls-2" d="M1426.1,263.8c0,10.2-1,18.9-2.4,25.7-1.5,6.8-4.4,12.6-8.2,16.5-3.9,4.4-9.2,7.3-15.5,8.7-6.3,1.9-14.5,2.4-23.8,2.4s-17-.5-23.3-1.9c-6.3-1.5-11.2-3.9-15-7.3-3.9-3.4-6.8-7.8-8.2-13.6s-2.4-12.6-2.4-20.8v-60.1h-25.2v-17h25.2v-33h20.4v33h76.1v17h-76.1v60.6c0,6.8.5,12.1,1.5,15.5,1,3.9,2.4,6.3,4.8,7.8s5.3,2.4,8.7,2.9c3.9.5,8.2.5,13.6.5h11.2c3.4,0,6.3-.5,8.7-1.5s4.8-1.9,6.3-3.4c1.9-1.5,3.4-3.4,4.4-6.3s1.9-6.3,2.4-10.2c.5-4.4,1-9.2,1-15.5,0,0,16,0,16,0Z"/>
      <path class="cls-2" d="M1561.9,301.1c0,1-1.9,2.9-4.8,6.3-1.9,2.4-4.8,4.8-8.2,6.8s-8.2,3.4-14.1,4.4c-5.8,1-13.6,1.5-23.3,1.5s-23.8-.5-32.5-1.9c-9.2-1.5-16.5-3.4-21.8-5.8-5.8-2.9-9.7-6.3-12.6-10.2-2.4-4.4-3.9-9.2-3.9-15s.5-11.2,1.9-15.5c1.5-4.4,3.4-7.8,6.3-10.7,2.9-2.9,6.3-5.3,10.2-6.8,3.9-1.5,8.2-2.9,13.6-3.9,4.8-1,10.7-1.5,16.5-1.5s12.1-.5,18.9-.5c9.7,0,17.5.5,24.2,1,6.3,1,11.6,1.9,16,2.9,3.9,1.5,7.3,2.4,9.2,3.9s3.4,2.9,4.4,3.9c0-7.8-.5-14.5-1-20.4-.5-5.3-1.9-10.2-3.4-14.1-1.5-3.9-3.4-6.8-5.8-8.7-2.4-2.4-5.3-3.9-8.7-4.8-3.4-1-7.8-1.9-12.1-1.9-4.8-.5-10.2-.5-16-.5-9.2,0-17,0-23.3.5s-11.2,1.5-14.5,2.9-6.3,3.4-7.8,5.3c-1.5,2.4-2.4,5.3-2.4,9.2h-20.4c0-6.3,1-11.6,3.4-16,2.4-4.4,6.3-8.2,11.2-10.7,5.3-2.9,12.1-4.8,20.8-5.8,8.7-1.5,19.4-1.9,32-1.9s22.8,1,31.5,2.9c8.7,1.9,15.5,5.8,20.8,10.7,5.3,5.3,9.2,12.1,11.6,20.8,2.4,8.7,3.4,19.9,3.4,33v57.2h-20.4v-16.5h1ZM1514.8,303.5c8.7,0,16.5-.5,22.3-1.5s10.7-1.9,14.5-3.9c3.9-1.5,6.3-3.9,7.8-6.3,1.5-2.4,2.4-5.3,2.4-8.7s-1-6.3-2.9-8.2c-1.9-2.4-4.8-4.4-8.7-5.8-4.4-1.5-9.7-2.4-16.5-3.4-6.8-.5-15.5-1-25.7-1s-18.4,0-24.7.5c-6.3.5-11.2,1-14.5,2.4s-5.8,2.9-6.8,5.3-1.9,5.8-1.9,9.7.5,7.8,1.9,10.2c1.5,2.4,3.9,4.8,7.8,6.3s9.2,2.4,16.5,2.9c7.3,1,17,1.5,28.6,1.5Z"/>
    </g>
  </g>
  <g>
    <path class="cls-3" d="M411.9,596.8l-12.5-32.6h6.2l9.9,28.2h0l10.8-28.2h5.4l10.7,28.2h0l10.1-28.2h6.2l-12.5,32.6h-7.2l-9.9-26.4h0l-9.9,26.4h-7.2Z"/>
    <path class="cls-3" d="M502.5,587.1c0,2.4-.4,4.4-1.1,5.7-.7,1.4-1.8,2.4-3.3,3.1-1.5.6-3.4,1.1-5.7,1.2-2.3.2-5.1.3-8.3.3s-6.7-.2-9.3-.6c-2.5-.4-4.6-1.1-6.1-2.3-1.6-1.1-2.7-2.9-3.4-5.1-.7-2.3-1.1-5.3-1.1-9.1s.3-6.7,1-8.9c.7-2.2,1.8-3.9,3.4-5s3.6-1.9,6.1-2.3c2.5-.4,5.6-.6,9.2-.6s7.6.3,10.4.9c2.7.6,4.8,1.7,6.1,3.3,1.3,1.6,2,4,2,7.2v7h-32.8c0,2.4.2,4.4.5,5.8.3,1.5,1,2.5,1.9,3.3s2.4,1.2,4.3,1.5c1.9.2,4.5.4,7.7.4s5.2,0,7-.2c1.8-.1,3.1-.4,4-.8.9-.4,1.5-1,1.9-1.7.3-.8.5-1.8.5-3.1h5.1ZM484,568.1c-3.1,0-5.6.1-7.4.3-1.9.2-3.3.7-4.3,1.3s-1.6,1.6-2,2.9c-.3,1.3-.5,3-.6,5.1h27.6v-2.7c0-1.4-.2-2.5-.5-3.4-.3-.9-.9-1.6-1.8-2.1s-2.2-.9-4-1.1c-1.8-.2-4.1-.3-7-.3Z"/>
    <path class="cls-3" d="M513.9,596.8v-43.5h5.4v43.5h-5.4Z"/>
    <path class="cls-3" d="M550,597.4c-3.6,0-6.7-.2-9.3-.6s-4.6-1.1-6.2-2.3-2.7-2.9-3.4-5.1c-.7-2.3-1.1-5.3-1.1-9.1s.4-6.7,1.1-8.9c.7-2.2,1.9-3.9,3.4-5s3.6-1.9,6.2-2.3c2.5-.4,5.6-.6,9.3-.6s8,.3,10.8.8c2.8.5,4.9,1.5,6.3,3.1,1.4,1.5,2,3.9,2,7.1h-5.2c0-1.8-.4-3.2-1.1-4.1s-2.1-1.5-4.1-1.8c-2-.3-4.9-.5-8.6-.5s-6,.1-8,.4-3.4.8-4.3,1.7-1.5,2-1.8,3.7c-.3,1.6-.4,3.8-.4,6.5s.1,5,.4,6.7c.3,1.7.9,2.9,1.8,3.8s2.4,1.4,4.3,1.7,4.6.4,8,.4,5.2,0,7-.2,3.2-.5,4.2-1,1.7-1.2,2.1-2.1c.4-.9.6-2.1.6-3.7h5.2c0,2.5-.4,4.6-1.1,6.1s-1.9,2.7-3.5,3.5c-1.5.8-3.5,1.3-5.9,1.6-2.4.3-5.3.4-8.6.4Z"/>
    <path class="cls-3" d="M597.1,597.4c-3.6,0-6.7-.2-9.3-.6s-4.6-1.1-6.2-2.3-2.7-2.9-3.4-5.1c-.7-2.3-1.1-5.3-1.1-9.1s.4-6.7,1.1-8.9c.7-2.2,1.9-3.9,3.4-5s3.6-1.9,6.2-2.3c2.5-.4,5.6-.6,9.3-.6s6.8.2,9.3.6c2.5.4,4.6,1.1,6.2,2.3s2.7,2.8,3.4,5c.7,2.2,1.1,5.2,1.1,8.9s-.4,6.9-1.1,9.1c-.7,2.3-1.9,4-3.4,5.1s-3.6,1.9-6.2,2.3c-2.5.4-5.6.6-9.3.6ZM611.6,580.3c0-2.7-.1-4.9-.4-6.5-.3-1.6-.9-2.8-1.8-3.7s-2.4-1.4-4.3-1.7c-2-.3-4.6-.4-8-.4s-6,.1-8,.4-3.4.8-4.3,1.7-1.5,2-1.8,3.7c-.3,1.6-.4,3.8-.4,6.5s.1,5,.4,6.7c.3,1.7.9,2.9,1.8,3.8s2.4,1.4,4.3,1.7,4.6.4,8,.4,6-.1,8-.4c2-.3,3.4-.8,4.3-1.7s1.5-2.1,1.8-3.8c.3-1.7.4-3.9.4-6.7Z"/>
    <path class="cls-3" d="M626,596.8v-32.6h5.4v4c.8-1.1,1.8-2,2.9-2.7s2.6-1.3,4.3-1.7c1.8-.4,4-.6,6.8-.6s6.2.5,8.4,1.4c2.2.9,3.7,2.5,4.8,4.8.9-1.4,2-2.6,3.3-3.5s2.9-1.6,4.9-2c2-.4,4.4-.6,7.3-.6s6.2.5,8.4,1.4,3.7,2.5,4.7,4.8c1,2.2,1.5,5.3,1.5,9.2v18.1h-5.4v-18.1c0-3-.3-5.3-.9-6.8s-1.7-2.6-3.1-3.2c-1.4-.6-3.4-.9-5.8-.9-4.8,0-8.2.7-10.3,2.1-2,1.4-3.1,3.7-3.1,6.9h0c0,.6,0,1.2,0,1.8v18.1h-5.4v-18.1c0-3-.3-5.3-.9-6.8s-1.7-2.6-3.1-3.2c-1.4-.6-3.4-.9-5.8-.9-4.8,0-8.2.7-10.3,2.1-2,1.4-3.1,3.7-3.1,6.9v19.9h-5.4Z"/>
    <path class="cls-3" d="M735.9,587.1c0,2.4-.4,4.4-1.1,5.7-.7,1.4-1.8,2.4-3.3,3.1-1.5.6-3.4,1.1-5.7,1.2-2.3.2-5.1.3-8.3.3s-6.7-.2-9.3-.6c-2.5-.4-4.6-1.1-6.1-2.3-1.6-1.1-2.7-2.9-3.4-5.1-.7-2.3-1.1-5.3-1.1-9.1s.3-6.7,1-8.9c.7-2.2,1.8-3.9,3.4-5s3.6-1.9,6.1-2.3c2.5-.4,5.6-.6,9.2-.6s7.6.3,10.4.9c2.7.6,4.8,1.7,6.1,3.3,1.3,1.6,2,4,2,7.2v7h-32.8c0,2.4.2,4.4.5,5.8.3,1.5,1,2.5,1.9,3.3s2.4,1.2,4.3,1.5c1.9.2,4.5.4,7.7.4s5.2,0,7-.2c1.8-.1,3.1-.4,4-.8.9-.4,1.5-1,1.9-1.7.3-.8.5-1.8.5-3.1h5.1ZM717.4,568.1c-3.1,0-5.6.1-7.4.3-1.9.2-3.3.7-4.3,1.3s-1.6,1.6-2,2.9c-.3,1.3-.5,3-.6,5.1h27.6v-2.7c0-1.4-.2-2.5-.5-3.4-.3-.9-.9-1.6-1.8-2.1s-2.2-.9-4-1.1c-1.8-.2-4.1-.3-7-.3Z"/>
    <path class="cls-3" d="M763.9,597.4c-4,0-7.2-.1-9.6-.4-2.4-.3-4.2-.8-5.5-1.5-1.2-.7-2.1-1.7-2.5-3.1-.4-1.3-.6-3-.6-5.2h5.2c0,1.2,0,2.1.3,2.9s.7,1.3,1.4,1.7,2.1.7,3.9.8c1.8.1,4.3.2,7.5.2s6.1,0,8-.2c1.9-.1,3.3-.4,4.1-.8s1.3-.9,1.5-1.7c.2-.7.3-1.7.3-2.9s-.1-2.6-.4-3.3-.9-1.2-1.9-1.5-2.5-.4-4.7-.4h-13c-3.3-.2-5.9-.5-7.6-1-1.8-.5-3-1.5-3.6-2.8s-1-3.2-1-5.7.4-4,1.1-5.3c.7-1.2,1.8-2.1,3.3-2.7,1.5-.5,3.5-.8,5.9-.9s5.3-.2,8.8-.2,7.2.1,9.6.4c2.4.2,4.1.7,5.3,1.4,1.2.7,2,1.7,2.3,3,.4,1.3.6,3,.6,5.1h-5.2c0-1.2,0-2.2-.3-2.9s-.6-1.2-1.4-1.6c-.7-.3-2-.5-3.6-.6-1.7,0-4-.1-7-.1s-6.1,0-8,.1c-1.9,0-3.3.3-4.1.5s-1.4.7-1.6,1.3-.3,1.5-.3,2.5,0,2,.2,2.6c.1.6.4,1.1,1,1.4.5.3,1.4.5,2.6.6,1.2.1,2.9.2,5,.2h11.2c3.4.2,5.9.4,7.7.9,1.7.5,2.9,1.5,3.6,2.9.6,1.4.9,3.4.9,6s-.3,4.2-1,5.6c-.7,1.4-1.8,2.4-3.3,3s-3.5,1.1-6,1.3c-2.5.2-5.5.3-9,.3Z"/>
    <path class="cls-3" d="M817.2,607.7v-4.5c1.9,0,3.6,0,4.8-.1,1.3,0,2.3-.3,3.2-.7.9-.4,1.6-1,2.3-1.9.7-.9,1.4-2.1,2.2-3.6h-1.8l-18.1-32.6h6.2l15.5,28.6,13.1-28.6h6.4l-16.5,34.4c-.7,1.5-1.5,2.9-2.3,4-.8,1.1-1.8,2.1-2.9,2.8-1.2.8-2.7,1.3-4.6,1.7s-4.4.6-7.4.6Z"/>
    <path class="cls-3" d="M876.3,597.4c-3.6,0-6.7-.2-9.3-.6s-4.6-1.1-6.2-2.3-2.7-2.9-3.4-5.1c-.7-2.3-1.1-5.3-1.1-9.1s.4-6.7,1.1-8.9c.7-2.2,1.9-3.9,3.4-5s3.6-1.9,6.2-2.3c2.5-.4,5.6-.6,9.3-.6s6.8.2,9.3.6c2.5.4,4.6,1.1,6.2,2.3s2.7,2.8,3.4,5c.7,2.2,1.1,5.2,1.1,8.9s-.4,6.9-1.1,9.1c-.7,2.3-1.9,4-3.4,5.1s-3.6,1.9-6.2,2.3c-2.5.4-5.6.6-9.3.6ZM890.8,580.3c0-2.7-.1-4.9-.4-6.5-.3-1.6-.9-2.8-1.8-3.7s-2.4-1.4-4.3-1.7c-2-.3-4.6-.4-8-.4s-6,.1-8,.4-3.4.8-4.3,1.7-1.5,2-1.8,3.7c-.3,1.6-.4,3.8-.4,6.5s.1,5,.4,6.7c.3,1.7.9,2.9,1.8,3.8s2.4,1.4,4.3,1.7,4.6.4,8,.4,6-.1,8-.4c2-.3,3.4-.8,4.3-1.7s1.5-2.1,1.8-3.8c.3-1.7.4-3.9.4-6.7Z"/>
    <path class="cls-3" d="M921.9,597.4c-4.3,0-7.6-.5-10.1-1.4s-4.2-2.5-5.2-4.7-1.6-5.2-1.6-9v-18.1h5.5v18.1c0,2.2.2,3.9.5,5.3.3,1.4,1,2.5,1.9,3.2s2.1,1.3,3.8,1.6c1.6.3,3.7.5,6.2.5,3.8,0,6.7-.3,8.9-.9s3.7-1.6,4.6-2.9c.9-1.3,1.3-3.1,1.3-5.2v-19.7h5.4v32.6h-5.4v-4.3c-.8,1.1-1.8,2-3,2.7s-2.8,1.3-4.8,1.7-4.7.6-7.9.6Z"/>
    <path class="cls-3" d="M989.3,597.4c-3.9,0-7.1-.2-9.7-.6-2.5-.4-4.4-1.3-5.7-2.7-1.2-1.4-1.9-3.5-1.9-6.4s.6-5.1,1.7-6.5c1.2-1.4,3-2.3,5.5-2.7,2.5-.4,5.8-.6,9.9-.6s6.1,0,8.4.2c2.2.2,4.3.4,6,.8,0-2.5-.2-4.5-.5-5.9s-.9-2.5-1.7-3.2c-.8-.7-2-1.1-3.6-1.3-1.6-.2-3.7-.3-6.4-.3s-5.4,0-7.1.2c-1.7.1-2.9.4-3.7.7s-1.3.8-1.5,1.5c-.2.6-.3,1.5-.3,2.5h-5.4c0-2,.3-3.7.8-4.9.6-1.2,1.5-2.2,2.8-2.8,1.3-.6,3.2-1.1,5.5-1.3,2.3-.2,5.3-.3,8.8-.3s6.9.2,9.2.7c2.3.5,4.1,1.4,5.3,2.6,1.2,1.3,2,3.1,2.5,5.3.4,2.3.6,5.2.6,8.8v15.7h-5.4v-2.2c-.6.7-1.5,1.2-2.7,1.6-1.1.4-2.6.7-4.5.9-1.9.2-4.3.3-7.2.3ZM989.3,593c3.2,0,5.8,0,7.7-.1,1.9,0,3.4-.3,4.3-.6,1-.3,1.6-.9,1.9-1.6.3-.8.5-1.8.5-3.2v-5l-14.4-.2c-2.5,0-4.6,0-6.2,0-1.6.1-2.7.3-3.6.7s-1.4.9-1.6,1.6c-.3.7-.4,1.8-.4,3s.1,2.2.4,2.9c.3.7.8,1.2,1.6,1.6s2,.6,3.6.7c1.6,0,3.6.1,6.2.1Z"/>
    <path class="cls-3" d="M1020.6,596.8v-43.5h5.4v43.5h-5.4Z"/>
    <path class="cls-3" d="M1039.5,596.8v-43.5h5.4v43.5h-5.4Z"/>
    <path class="cls-3" d="M1092.8,597.4c-3.9,0-7.1-.2-9.7-.6-2.5-.4-4.4-1.3-5.7-2.7-1.2-1.4-1.9-3.5-1.9-6.4s.6-5.1,1.7-6.5c1.2-1.4,3-2.3,5.5-2.7,2.5-.4,5.8-.6,9.9-.6s6.1,0,8.4.2c2.2.2,4.3.4,6,.8,0-2.5-.2-4.5-.5-5.9s-.9-2.5-1.7-3.2c-.8-.7-2-1.1-3.6-1.3-1.6-.2-3.7-.3-6.4-.3s-5.4,0-7.1.2c-1.7.1-2.9.4-3.7.7s-1.3.8-1.5,1.5c-.2.6-.3,1.5-.3,2.5h-5.4c0-2,.3-3.7.8-4.9.6-1.2,1.5-2.2,2.8-2.8,1.3-.6,3.2-1.1,5.5-1.3,2.3-.2,5.3-.3,8.8-.3s6.9.2,9.2.7c2.3.5,4.1,1.4,5.3,2.6,1.2,1.3,2,3.1,2.5,5.3.4,2.3.6,5.2.6,8.8v15.7h-5.4v-2.2c-.6.7-1.5,1.2-2.7,1.6-1.1.4-2.6.7-4.5.9-1.9.2-4.3.3-7.2.3ZM1092.8,593c3.2,0,5.8,0,7.7-.1,1.9,0,3.4-.3,4.3-.6,1-.3,1.6-.9,1.9-1.6.3-.8.5-1.8.5-3.2v-5l-14.4-.2c-2.5,0-4.6,0-6.2,0-1.6.1-2.7.3-3.6.7s-1.4.9-1.6,1.6c-.3.7-.4,1.8-.4,3s.1,2.2.4,2.9c.3.7.8,1.2,1.6,1.6s2,.6,3.6.7c1.6,0,3.6.1,6.2.1Z"/>
    <path class="cls-3" d="M1124.1,596.8v-43.5h5.4v43.5h-5.4Z"/>
    <path class="cls-3" d="M1160.2,597.4c-3.6,0-6.7-.2-9.3-.6s-4.6-1.1-6.2-2.3-2.7-2.9-3.4-5.1c-.7-2.3-1.1-5.3-1.1-9.1s.4-6.7,1.1-8.9c.7-2.2,1.9-3.9,3.4-5s3.6-1.9,6.2-2.3c2.5-.4,5.6-.6,9.3-.6s6.8.2,9.3.6c2.5.4,4.6,1.1,6.2,2.3s2.7,2.8,3.4,5c.7,2.2,1.1,5.2,1.1,8.9s-.4,6.9-1.1,9.1c-.7,2.3-1.9,4-3.4,5.1s-3.6,1.9-6.2,2.3c-2.5.4-5.6.6-9.3.6ZM1174.7,580.3c0-2.7-.1-4.9-.4-6.5-.3-1.6-.9-2.8-1.8-3.7s-2.4-1.4-4.3-1.7c-2-.3-4.6-.4-8-.4s-6,.1-8,.4-3.4.8-4.3,1.7-1.5,2-1.8,3.7c-.3,1.6-.4,3.8-.4,6.5s.1,5,.4,6.7c.3,1.7.9,2.9,1.8,3.8s2.4,1.4,4.3,1.7,4.6.4,8,.4,6-.1,8-.4c2-.3,3.4-.8,4.3-1.7s1.5-2.1,1.8-3.8c.3-1.7.4-3.9.4-6.7Z"/>
    <path class="cls-3" d="M1189.2,596.8v-32.6h5.4v4.3c.8-1.1,1.8-2,3-2.7,1.2-.7,2.8-1.3,4.8-1.7,2-.4,4.6-.6,7.9-.6s7.6.4,10.1,1.2c2.5.8,4.2,2.3,5.3,4.4,1,2.1,1.6,5.2,1.6,9.1v18.5h-5.5v-18.5c0-2.2-.2-4-.6-5.4s-1-2.4-1.9-3.1c-.9-.7-2.2-1.2-3.8-1.4s-3.6-.4-6.1-.4c-3.8,0-6.7.3-8.9.9s-3.7,1.6-4.6,2.9-1.3,3.1-1.3,5.2v19.7h-5.4Z"/>
    <path class="cls-3" d="M1257,609.2c-2.9,0-5.5,0-7.9-.2-2.4-.1-4.4-.5-6.1-1s-3-1.4-3.9-2.5-1.4-2.8-1.4-4.8h5.4c0,1.3.5,2.3,1.5,2.8,1,.6,2.6.9,4.6,1s4.6.2,7.7.2,4.2,0,5.9-.2,3-.6,4-1.2c1-.7,1.8-1.8,2.3-3.4.5-1.6.7-3.8.7-6.7v-.8c-1.3,1.7-3.1,2.8-5.5,3.4-2.3.5-5.2.8-8.6.8s-6.5-.2-9-.6-4.5-1.2-6.1-2.3c-1.6-1.1-2.7-2.8-3.4-4.9s-1.1-5-1.1-8.4.4-6.7,1.1-8.9c.7-2.2,1.9-3.9,3.4-5,1.6-1.1,3.6-1.9,6.1-2.2s5.5-.6,9-.6,6.3.3,8.6.8c2.3.5,4.1,1.6,5.5,3.3v-3.5h5.4v29.2c0,3.6-.5,6.4-1.4,8.6s-2,3.7-3.6,4.8c-1.5,1-3.4,1.7-5.7,2.1-2.2.3-4.8.5-7.7.5ZM1269.8,580.3c0-2.7-.2-4.9-.5-6.5-.3-1.6-1-2.8-1.9-3.7-1-.8-2.4-1.4-4.2-1.6-1.9-.3-4.3-.4-7.4-.4s-5.8.1-7.7.4c-1.9.3-3.3.8-4.2,1.6s-1.5,2-1.8,3.7c-.3,1.6-.4,3.8-.4,6.5s.1,4.5.4,6c.3,1.5.9,2.7,1.8,3.6.9.8,2.3,1.4,4.2,1.7s4.5.5,7.7.5,5.5-.2,7.4-.5c1.9-.3,3.3-.9,4.2-1.7,1-.8,1.6-2,1.9-3.6.3-1.5.5-3.5.5-6Z"/>
    <path class="cls-3" d="M1319.3,596.8c-3.3,0-6-.3-8-1s-3.5-1.9-4.3-3.6c-.9-1.7-1.3-4.1-1.3-7.2v-29.8h5.4v8.9h20.1v4.5h-20.1v16.4c0,2.1.2,3.7.6,4.7.4,1,1.2,1.7,2.4,2,1.2.3,2.9.5,5.3.5s3.7,0,4.9-.2c1.2-.1,2.1-.5,2.6-1.1s.9-1.5,1.1-2.8c.2-1.3.2-3.2.2-5.6h4.8c0,3.1-.2,5.6-.6,7.5-.4,1.9-1.1,3.3-2.1,4.3-1,1-2.4,1.6-4.2,1.9-1.8.3-4.1.5-6.9.5Z"/>
    <path class="cls-3" d="M1360.7,597.4c-3.6,0-6.7-.2-9.3-.6s-4.6-1.1-6.2-2.3-2.7-2.9-3.4-5.1c-.7-2.3-1.1-5.3-1.1-9.1s.4-6.7,1.1-8.9c.7-2.2,1.9-3.9,3.4-5s3.6-1.9,6.2-2.3c2.5-.4,5.6-.6,9.3-.6s6.8.2,9.3.6c2.5.4,4.6,1.1,6.2,2.3s2.7,2.8,3.4,5c.7,2.2,1.1,5.2,1.1,8.9s-.4,6.9-1.1,9.1c-.7,2.3-1.9,4-3.4,5.1s-3.6,1.9-6.2,2.3c-2.5.4-5.6.6-9.3.6ZM1375.3,580.3c0-2.7-.1-4.9-.4-6.5-.3-1.6-.9-2.8-1.8-3.7s-2.4-1.4-4.3-1.7c-2-.3-4.6-.4-8-.4s-6,.1-8,.4-3.4.8-4.3,1.7-1.5,2-1.8,3.7c-.3,1.6-.4,3.8-.4,6.5s.1,5,.4,6.7c.3,1.7.9,2.9,1.8,3.8s2.4,1.4,4.3,1.7,4.6.4,8,.4,6-.1,8-.4c2-.3,3.4-.8,4.3-1.7s1.5-2.1,1.8-3.8c.3-1.7.4-3.9.4-6.7Z"/>
    <path class="cls-3" d="M1427.7,597.4c-3.6,0-6.7-.2-9.3-.6s-4.6-1.1-6.2-2.3-2.7-2.9-3.4-5.1c-.7-2.3-1.1-5.3-1.1-9.1s.4-6.7,1.1-8.9c.7-2.2,1.9-3.9,3.4-5s3.6-1.9,6.2-2.3c2.5-.4,5.6-.6,9.3-.6s6.8.2,9.3.6c2.5.4,4.6,1.1,6.2,2.3s2.7,2.8,3.4,5c.7,2.2,1.1,5.2,1.1,8.9s-.4,6.9-1.1,9.1c-.7,2.3-1.9,4-3.4,5.1s-3.6,1.9-6.2,2.3c-2.5.4-5.6.6-9.3.6ZM1442.2,580.3c0-2.7-.1-4.9-.4-6.5-.3-1.6-.9-2.8-1.8-3.7s-2.4-1.4-4.3-1.7c-2-.3-4.6-.4-8-.4s-6,.1-8,.4-3.4.8-4.3,1.7-1.5,2-1.8,3.7c-.3,1.6-.4,3.8-.4,6.5s.1,5,.4,6.7c.3,1.7.9,2.9,1.8,3.8s2.4,1.4,4.3,1.7,4.6.4,8,.4,6-.1,8-.4c2-.3,3.4-.8,4.3-1.7s1.5-2.1,1.8-3.8c.3-1.7.4-3.9.4-6.7Z"/>
    <path class="cls-3" d="M1473.3,597.4c-4.3,0-7.6-.5-10.1-1.4s-4.2-2.5-5.2-4.7-1.6-5.2-1.6-9v-18.1h5.5v18.1c0,2.2.2,3.9.5,5.3.3,1.4,1,2.5,1.9,3.2s2.1,1.3,3.8,1.6c1.6.3,3.7.5,6.2.5,3.8,0,6.7-.3,8.9-.9s3.7-1.6,4.6-2.9c.9-1.3,1.3-3.1,1.3-5.2v-19.7h5.4v32.6h-5.4v-4.3c-.8,1.1-1.8,2-3,2.7s-2.8,1.3-4.8,1.7-4.7.6-7.9.6Z"/>
    <path class="cls-3" d="M1505,596.8v-32.6h5.4v4.5c.6-1,1.2-1.8,1.8-2.4.6-.6,1.4-1.2,2.4-1.5,1-.4,2.3-.6,4-.8s3.9-.2,6.7-.2v4.6c-3.7,0-6.6.1-8.7.4-2,.3-3.5.7-4.4,1.3s-1.4,1.5-1.6,2.6c-.2,1.1-.3,2.5-.3,4.2v19.9h-5.4Z"/>
  </g>
  <text class="cls-4" transform="translate(343.2 863.9)"><tspan x="0" y="0">Summer Social</tspan></text>
  <text class="cls-4" transform="translate(340.2 863.9)"><tspan x="0" y="0">Summer Social</tspan></text>
  <g>
    <path class="cls-2" d="M453.9,835.7c0-3.8-.3-6.7-.9-8.9-.6-2.2-1.9-3.8-4-4.8-2.1-1-5.3-1.7-9.6-2-4.4-.3-10.3-.5-17.9-.7l-35.3-.5c-8.7-.1-15.7-.7-21-1.6-5.3-.9-9.3-2.4-12-4.4-2.7-2-4.5-4.7-5.4-8.1-.9-3.4-1.4-7.6-1.4-12.7s.6-10.1,1.9-13.7c1.2-3.6,3.5-6.4,6.8-8.4,3.3-2,7.9-3.5,13.9-4.3,6-.8,13.8-1.2,23.3-1.2h27.2c8.6,0,15.8.3,21.6.8,5.8.6,10.3,1.8,13.7,3.8,3.4,2,5.8,5.1,7.3,9.3s2.2,9.9,2.2,17.3h-12.2c0-5.7-.5-10-1.6-12.9-1.1-2.9-2.9-4.9-5.3-5.9-2.5-1.1-5.8-1.6-10-1.7-4.2,0-9.4-.1-15.6-.1h-26.5c-7.6,0-13.6.1-18.2.4-4.5.3-8,1-10.3,2-2.3,1.1-3.9,2.8-4.7,5.1-.8,2.3-1.2,5.5-1.2,9.6s.3,6.2.8,8.3c.5,2.1,1.8,3.7,3.7,4.7,1.9,1.1,4.9,1.8,8.9,2.2,4,.4,9.5.6,16.4.7l37.8.5c8.9.1,16,.6,21.3,1.6,5.3.9,9.3,2.4,11.9,4.4,2.6,2,4.4,4.8,5.3,8.2.9,3.5,1.3,7.8,1.3,13s-.5,10.5-1.6,14.4c-1.1,3.9-3.2,7-6.3,9.3-3.1,2.3-7.6,4-13.4,5s-13.5,1.5-23,1.5h-29.7c-8.7,0-16-.4-21.8-1.1-5.9-.8-10.6-2.3-14.1-4.6s-6-5.7-7.5-10.3-2.3-10.7-2.3-18.3h12.2c0,6,.5,10.6,1.5,13.8,1,3.3,2.7,5.6,5.1,7,2.4,1.4,5.8,2.3,10.2,2.5s10,.4,16.7.4h29.1c7.6,0,13.6-.2,18-.7,4.4-.5,7.7-1.4,9.8-2.8,2.1-1.4,3.5-3.4,4.1-5.9.6-2.6.9-6,.9-10.2Z"/>
    <path class="cls-2" d="M519.6,865.3c-9.6,0-17.1-1-22.6-3.1-5.5-2.1-9.4-5.6-11.7-10.5-2.3-4.9-3.5-11.7-3.5-20.2v-40.6h12.3v40.6c0,4.8.4,8.8,1.2,11.9.8,3.1,2.2,5.5,4.2,7.2,2,1.7,4.8,2.9,8.4,3.6,3.6.7,8.3,1,14,1,8.5,0,15.1-.7,19.9-2.1s8.2-3.6,10.3-6.6c2-3,3-6.9,3-11.6v-44.1h12.2v73.1h-12.2v-9.7c-1.8,2.5-4,4.5-6.7,6.2-2.7,1.7-6.3,2.9-10.9,3.7-4.5.8-10.5,1.2-17.8,1.2Z"/>
    <path class="cls-2" d="M583.9,863.9v-73.1h12.2v9.1c1.8-2.5,4-4.5,6.5-6.2s5.8-2.9,9.7-3.7c4-.8,9-1.2,15.2-1.2s13.9,1,18.7,3.1c4.8,2.1,8.4,5.6,10.7,10.7,2.1-3.2,4.6-5.8,7.5-7.9s6.6-3.6,11-4.5c4.4-1,9.9-1.4,16.3-1.4s14,1,18.8,3.1c4.8,2.1,8.4,5.7,10.6,10.7,2.3,5,3.4,11.9,3.4,20.7v40.6h-12.2v-40.6c0-6.7-.7-11.8-2.1-15.3-1.4-3.5-3.7-5.9-7-7.2-3.2-1.3-7.6-1.9-13.1-1.9-10.8,0-18.5,1.6-23.1,4.8-4.6,3.2-6.9,8.4-6.9,15.6h0c0,1.2,0,2.6,0,4.1v40.6h-12.2v-40.6c0-6.7-.7-11.8-2.1-15.3-1.4-3.5-3.7-5.9-7-7.2-3.2-1.3-7.6-1.9-13.1-1.9-10.8,0-18.5,1.6-23.1,4.8-4.6,3.2-6.9,8.4-6.9,15.6v44.7h-12.2Z"/>
    <path class="cls-2" d="M741,863.9v-73.1h12.2v9.1c1.8-2.5,4-4.5,6.5-6.2s5.8-2.9,9.7-3.7c4-.8,9-1.2,15.2-1.2s13.9,1,18.7,3.1c4.8,2.1,8.4,5.6,10.7,10.7,2.1-3.2,4.6-5.8,7.5-7.9s6.6-3.6,11-4.5c4.4-1,9.9-1.4,16.3-1.4s14,1,18.8,3.1c4.8,2.1,8.4,5.7,10.6,10.7,2.3,5,3.4,11.9,3.4,20.7v40.6h-12.2v-40.6c0-6.7-.7-11.8-2.1-15.3-1.4-3.5-3.7-5.9-7-7.2-3.2-1.3-7.6-1.9-13.1-1.9-10.8,0-18.5,1.6-23.1,4.8-4.6,3.2-6.9,8.4-6.9,15.6h0c0,1.2,0,2.6,0,4.1v40.6h-12.2v-40.6c0-6.7-.7-11.8-2.1-15.3-1.4-3.5-3.7-5.9-7-7.2-3.2-1.3-7.6-1.9-13.1-1.9-10.8,0-18.5,1.6-23.1,4.8-4.6,3.2-6.9,8.4-6.9,15.6v44.7h-12.2Z"/>
    <path class="cls-2" d="M981.5,842.2c0,5.5-.8,9.8-2.4,12.9-1.6,3.1-4.1,5.4-7.5,6.9-3.3,1.4-7.6,2.4-12.8,2.8-5.2.4-11.4.6-18.5.6s-15.1-.4-20.8-1.2c-5.7-.8-10.3-2.5-13.8-5.1-3.5-2.6-6-6.4-7.6-11.5-1.6-5.1-2.4-12-2.4-20.5s.8-14.9,2.3-19.9c1.5-5,4.1-8.8,7.5-11.3,3.5-2.5,8-4.2,13.7-5.1,5.6-.8,12.6-1.3,20.7-1.3s17.1.7,23.2,2c6.1,1.3,10.7,3.8,13.7,7.5,3,3.7,4.5,9.1,4.5,16.2v15.7h-73.5c0,5.4.4,9.8,1.1,13,.7,3.3,2.2,5.7,4.3,7.4s5.4,2.7,9.7,3.3c4.3.5,10,.8,17.2.8s11.6-.1,15.6-.4c4-.3,7-.8,9-1.7,2.1-.9,3.4-2.2,4.2-3.9.7-1.7,1.1-4.1,1.1-7h11.4ZM940,799.5c-6.9,0-12.5.3-16.7.8-4.2.5-7.4,1.5-9.6,3-2.2,1.5-3.7,3.6-4.5,6.5-.8,2.9-1.2,6.7-1.2,11.4h61.8v-6.1c0-3-.3-5.6-1-7.6-.7-2-2.1-3.6-4.1-4.8s-5-2-9-2.4c-4-.5-9.2-.7-15.7-.7Z"/>
    <path class="cls-2" d="M998.5,863.9v-73.1h12.2v10.1c1.4-2.2,2.7-4,4.1-5.4,1.4-1.4,3.2-2.6,5.4-3.4,2.2-.8,5.2-1.4,9-1.8s8.8-.5,15-.5v10.2c-8.4,0-14.9.3-19.5.9-4.6.6-7.9,1.6-9.9,3s-3.2,3.4-3.6,5.9c-.4,2.5-.6,5.7-.6,9.5v44.7h-12.2Z"/>
    <path class="cls-2" d="M1204.6,835.7c0-3.8-.3-6.7-.9-8.9-.6-2.2-1.9-3.8-4-4.8-2.1-1-5.3-1.7-9.6-2-4.4-.3-10.3-.5-17.9-.7l-35.3-.5c-8.7-.1-15.7-.7-21-1.6-5.3-.9-9.3-2.4-12-4.4-2.7-2-4.5-4.7-5.4-8.1-.9-3.4-1.4-7.6-1.4-12.7s.6-10.1,1.9-13.7c1.2-3.6,3.5-6.4,6.8-8.4,3.3-2,7.9-3.5,13.9-4.3,6-.8,13.8-1.2,23.3-1.2h27.2c8.6,0,15.8.3,21.6.8,5.8.6,10.3,1.8,13.7,3.8,3.4,2,5.8,5.1,7.3,9.3,1.5,4.2,2.2,9.9,2.2,17.3h-12.2c0-5.7-.5-10-1.6-12.9-1.1-2.9-2.9-4.9-5.3-5.9-2.5-1.1-5.8-1.6-10-1.7-4.2,0-9.4-.1-15.6-.1h-26.5c-7.6,0-13.6.1-18.2.4-4.5.3-8,1-10.3,2-2.3,1.1-3.9,2.8-4.7,5.1-.8,2.3-1.2,5.5-1.2,9.6s.3,6.2.8,8.3c.5,2.1,1.8,3.7,3.7,4.7,1.9,1.1,4.9,1.8,8.9,2.2,4,.4,9.5.6,16.4.7l37.8.5c8.9.1,16,.6,21.3,1.6,5.3.9,9.3,2.4,11.9,4.4,2.6,2,4.4,4.8,5.3,8.2.9,3.5,1.3,7.8,1.3,13s-.5,10.5-1.6,14.4c-1.1,3.9-3.2,7-6.3,9.3-3.1,2.3-7.6,4-13.4,5s-13.5,1.5-23,1.5h-29.7c-8.7,0-16-.4-21.8-1.1-5.9-.8-10.6-2.3-14.1-4.6-3.5-2.3-6-5.7-7.5-10.3s-2.3-10.7-2.3-18.3h12.2c0,6,.5,10.6,1.5,13.8,1,3.3,2.7,5.6,5.1,7s5.8,2.3,10.2,2.5c4.4.3,10,.4,16.7.4h29.1c7.6,0,13.6-.2,18-.7,4.4-.5,7.7-1.4,9.8-2.8,2.1-1.4,3.5-3.4,4.1-5.9.6-2.6.9-6,.9-10.2Z"/>
    <path class="cls-2" d="M1275.4,865.3c-8.2,0-15.1-.4-20.8-1.2-5.7-.8-10.3-2.5-13.8-5.1-3.5-2.6-6.1-6.4-7.7-11.5-1.6-5.1-2.4-12-2.4-20.5s.8-14.9,2.4-19.9c1.6-5,4.2-8.8,7.7-11.3,3.5-2.5,8.1-4.2,13.8-5.1,5.7-.8,12.7-1.3,20.8-1.3s15.2.4,20.9,1.3c5.7.8,10.3,2.5,13.8,5.1,3.5,2.5,6.1,6.3,7.7,11.3,1.6,5,2.4,11.6,2.4,19.9s-.8,15.4-2.4,20.5c-1.6,5.1-4.2,9-7.7,11.5-3.5,2.6-8.1,4.3-13.8,5.1-5.7.8-12.6,1.2-20.9,1.2ZM1308,827c0-6.1-.3-10.9-.9-14.5-.6-3.6-2-6.4-4-8.2-2.1-1.8-5.3-3.1-9.7-3.7-4.4-.6-10.4-1-17.9-1s-13.5.3-17.9,1c-4.4.6-7.6,1.9-9.7,3.7-2.1,1.8-3.4,4.6-4,8.2-.6,3.6-.9,8.5-.9,14.5s.3,11.3.9,15c.6,3.8,2,6.6,4,8.5,2.1,1.9,5.3,3.1,9.7,3.7,4.4.6,10.4.9,17.9.9s13.6-.3,17.9-.9c4.4-.6,7.6-1.9,9.7-3.7,2.1-1.9,3.4-4.7,4-8.5.6-3.8.9-8.8.9-15Z"/>
    <path class="cls-2" d="M1377.1,865.3c-8.2,0-15.1-.4-20.8-1.2-5.7-.8-10.3-2.5-13.8-5.1-3.5-2.6-6.1-6.4-7.7-11.5-1.6-5.1-2.4-12-2.4-20.5s.8-14.9,2.4-19.9c1.6-5,4.2-8.8,7.7-11.3,3.5-2.5,8.1-4.2,13.8-5.1,5.7-.8,12.7-1.3,20.8-1.3s17.8.6,24.2,1.7c6.3,1.1,11,3.4,14.1,6.9,3,3.5,4.6,8.8,4.6,15.9h-11.7c0-4.1-.8-7.2-2.5-9.2-1.7-2-4.8-3.4-9.3-4.1-4.5-.7-10.9-1-19.3-1s-13.5.3-17.9,1c-4.4.6-7.6,1.9-9.7,3.7-2.1,1.8-3.4,4.6-4,8.2-.6,3.6-.9,8.5-.9,14.5s.3,11.3.9,15c.6,3.8,2,6.6,4,8.5,2.1,1.9,5.3,3.1,9.7,3.7,4.4.6,10.4.9,17.9.9s11.6-.2,15.7-.5,7.2-1.1,9.5-2.2c2.2-1.1,3.8-2.6,4.7-4.7s1.3-4.8,1.3-8.2h11.7c0,5.7-.8,10.2-2.5,13.6-1.7,3.4-4.3,6-7.7,7.7-3.5,1.7-7.9,2.9-13.3,3.5-5.4.6-11.8.9-19.2.9Z"/>
    <path class="cls-2" d="M1434.1,778.6v-12.2h12.2v12.2h-12.2ZM1434.1,863.9v-69.1h12.2v69.1h-12.2Z"/>
    <path class="cls-2" d="M1501.2,865.3c-8.8,0-16-.5-21.7-1.4-5.7-.9-9.9-2.9-12.7-6-2.8-3.1-4.2-7.9-4.2-14.4s1.3-11.5,3.9-14.6c2.6-3.1,6.7-5.1,12.4-6.1,5.6-.9,13.1-1.4,22.2-1.4s13.7.2,18.7.5c5,.3,9.5.9,13.5,1.8,0-5.6-.5-10.1-1.1-13.3-.7-3.2-1.9-5.6-3.8-7.2-1.9-1.6-4.6-2.6-8.2-3-3.6-.4-8.3-.7-14.3-.7s-12.1.1-15.9.4c-3.8.3-6.6.8-8.3,1.6-1.7.8-2.8,1.9-3.3,3.3-.4,1.4-.7,3.3-.7,5.6h-12.2c0-4.6.6-8.3,1.9-11s3.4-4.9,6.4-6.3c3-1.4,7.1-2.4,12.3-2.9,5.2-.5,11.8-.8,19.8-.8s15.4.6,20.7,1.7c5.2,1.1,9.2,3.1,11.9,5.9,2.7,2.9,4.6,6.8,5.5,12,1,5.1,1.4,11.7,1.4,19.8v35.2h-12.2v-5c-1.4,1.5-3.4,2.8-6,3.7-2.5.9-5.9,1.6-10.1,2.1-4.2.4-9.6.7-16.2.7ZM1501.2,855.4c7.2,0,13,0,17.3-.3,4.3-.2,7.5-.6,9.7-1.4,2.1-.8,3.5-2,4.2-3.7.7-1.7,1-4.1,1-7.1v-11.2l-32.2-.4c-5.7,0-10.3,0-13.8.2-3.5.2-6.1.7-8,1.5-1.8.8-3,2-3.6,3.7-.6,1.7-.9,3.9-.9,6.8s.3,4.9.9,6.5c.6,1.6,1.8,2.8,3.6,3.6,1.8.8,4.5,1.2,8,1.5,3.5.2,8.1.3,13.8.3Z"/>
    <path class="cls-2" d="M1565.7,863.9v-97.5h12.2v97.5h-12.2Z"/>
  </g>
</svg>